<svg xmlns="http://www.w3.org/2000/svg" viewBox="0 0 556 207"><defs><style>.cls-1{fill:#1b1464;}.cls-2{fill:#2e3192;}.cls-3{font-size:72px;fill:#fff;font-family:MyriadPro-Regular, Myriad Pro;}.cls-4{letter-spacing:0.02em;}.cls-5{letter-spacing:0em;}</style></defs><g id="Layer_2" data-name="Layer 2"><rect x="11.5" y="12.5" width="165" height="194"/><path d="M253,164V357H89V164H253m1-1H88V358H254V163Z" transform="translate(-77 -151)"/><rect x="206.5" y="12.5" width="349" height="194"/><path d="M632,164V357H284V164H632m1-1H283V358H633V163Z" transform="translate(-77 -151)"/><rect class="cls-1" x="1.5" y="1.5" width="163" height="192"/><path class="cls-2" d="M240,154V343H80V154H240m3-3H77V346H243V151Z" transform="translate(-77 -151)"/><rect class="cls-1" x="196.5" y="1.5" width="347" height="192"/><path class="cls-2" d="M619,154V343H275V154H619m3-3H272V346H622V151Z" transform="translate(-77 -151)"/><text class="cls-3" transform="translate(21 89.12)">P<tspan class="cls-4" x="38.3" y="0">E</tspan><tspan x="74.88" y="0" xml:space="preserve">T     POLICE</tspan></text><text class="cls-3" transform="translate(325.2 171.63)">FO<tspan class="cls-5" x="84.67" y="0">R</tspan><tspan x="123.62" y="0">CE</tspan></text></g></svg>